# xmcd
#
# Track frame offsets:
#	150
#	17909
#	36052
#	53977
#	76708
#	94505
#	111853
#	125715
#	144566
#	163917
#	180533
#	201036
#	221744
#	244430
#	261655
#
# Disc length: 3757 seconds
#
# Revision: 5
# Processed by: cddbd v1.5.2PL0 Copyright (c) Steve Scherf et al.
# Submitted via: EasyCDDAExtractor 15.3.0.1
#
DISCID=dd0eab0f
DTITLE=Tiziano Ferro - Rojo Relativo
DYEAR=2002
DGENRE=Latin
TTITLE0=Las Cosas Que No Dices
TTITLE1=Rojo Relativo
TTITLE2=Perdona
TTITLE3=Alucinado
TTITLE4=Y Mas
TTITLE5=Si No Hubiera Nacido
TTITLE6=Primavera Nunca Fue
TTITLE7=El Confin
TTITLE8=Boom Boom
TTITLE9=La Olimpiada
TTITLE10=Soul-Dier
TTITLE11=Il Bimbo Dentro
TTITLE12=Imbranato (Version En Italiano) (Bonus Track)
TTITLE13=Alucinado (Obadam's Radio Edit) (Bonus Track)
TTITLE14=Alucinado (D-Menace Salsa Remix) (Bonus Track)
EXTD=
EXTT0=
EXTT1=
EXTT2=
EXTT3=
EXTT4=
EXTT5=
EXTT6=
EXTT7=
EXTT8=
EXTT9=
EXTT10=
EXTT11=
EXTT12=
EXTT13=
EXTT14=
PLAYORDER=
